<?xml version="1.0" encoding="UTF-8" standalone="no"?>
<!-- Created with Inkscape (http://www.inkscape.org/) -->

<svg
   width="0.5in"
   height="0.5in"
   viewBox="0 0 12.7 12.7"
   version="1.1"
   id="svg1"
   xml:space="preserve"
   inkscape:version="1.3.2 (091e20ef0f, 2023-11-25)"
   sodipodi:docname="qr-code.svg"
   xmlns:inkscape="http://www.inkscape.org/namespaces/inkscape"
   xmlns:sodipodi="http://sodipodi.sourceforge.net/DTD/sodipodi-0.dtd"
   xmlns="http://www.w3.org/2000/svg"
   xmlns:svg="http://www.w3.org/2000/svg"><sodipodi:namedview
     id="namedview1"
     pagecolor="#ffffff"
     bordercolor="#000000"
     borderopacity="0.25"
     inkscape:showpageshadow="2"
     inkscape:pageopacity="0.0"
     inkscape:pagecheckerboard="0"
     inkscape:deskcolor="#d1d1d1"
     inkscape:document-units="in"
     inkscape:zoom="16.104167"
     inkscape:cx="24.031047"
     inkscape:cy="24"
     inkscape:window-width="1904"
     inkscape:window-height="971"
     inkscape:window-x="8"
     inkscape:window-y="64"
     inkscape:window-maximized="0"
     inkscape:current-layer="layer1" /><defs
     id="defs1" /><g
     inkscape:label="Layer 1"
     inkscape:groupmode="layer"
     id="layer1"><path
       style="fill:#22375c;fill-opacity:1"
       d="m 1.5663333,9.7578332 v -1.3335 h 1.3335 1.3335 v 1.3335 1.3334998 h -1.3335 -1.3335 z m 2.286,0 v -0.9525 h -0.9525 -0.9525 v 0.9525 0.9524998 h 0.9525 0.9525 z m -1.524,0 v -0.5715 h 0.5715 0.5715 v 0.5715 0.5714998 h -0.5715 -0.5715 z m 2.286,0.9524998 v -0.381 h 0.1905 0.1905 v 0.1905 0.1905 h 0.1905 0.1905 v 0.1905 0.1905 h -0.381 -0.381 z m 1.5239999,0.1905 v -0.1905 h -0.1905 -0.1905 v -0.1905 -0.1905 h -0.1905 -0.1904999 v -0.1905 -0.1904998 h -0.381 -0.381 v -0.1905 -0.1905 h 0.1905 0.1905 v -0.1905 -0.1905 h 0.1905 0.1905 v -0.5715 -0.5715 h -0.1905 -0.1905 v 0.381 0.381 h -0.1905 -0.1905 v -0.381 -0.381 h -0.381 -0.381 v -0.1905 -0.1905 h 0.1905 0.1905 v -0.1905 -0.1905 h -0.1905 -0.1905 v -0.1905 -0.1905 h 0.1905 0.1905 v -0.1905 -0.1905 h -0.381 -0.381 v -0.1905 -0.1905 h 0.381 0.381 v -0.1905 -0.1905 h -0.5715 -0.5715 v 0.1905 0.1905 h -0.1905 -0.1905 v -0.1905 -0.1905 h -0.1905 -0.1905 v 0.381 0.381 h 0.381 0.381 v 0.5715 0.5715 h 0.1905 0.1905 v 0.1905 0.1905 h -0.381 -0.381 v -0.1905 -0.1905 h -0.1905 -0.1905 v 0.1905 0.1905 h -0.381 -0.381 v -0.1905 -0.1905 h 0.1905 0.1905 v -0.1905 -0.1905 h -0.1905 -0.1905 v -0.1905 -0.1905 h 0.1905 0.1905 v 0.1905 0.1905 h 0.381 0.381 v -0.1905 -0.1905 h -0.1905 -0.1905 v -0.1905 -0.1905 h -0.1905 -0.1905 v -0.5715 -0.5714999 h 0.381 0.381 v -0.381 -0.381 h 0.1905 0.1905 v 0.381 0.381 h 0.5715 0.5715 v 0.1904999 0.1905 h 0.1905 0.1905 v 0.381 0.381 h 0.5715 0.5714999 v 0.1905 0.1905 h 0.762 0.762 v -0.1905 -0.1905 h 0.1905 0.1905 v -0.381 -0.381 h 0.1905 0.1905 v -0.1905 -0.1904999 h -0.762 -0.762 v 0.1904999 0.1905 h 0.381 0.381 v 0.1905 0.1905 h -0.762 -0.762 v -0.1905 -0.1905 h -0.3809999 -0.381 v -0.1905 -0.1904999 h 0.1905 0.1905 v -0.381 -0.381 h -0.381 -0.381 v 0.1905 0.1905 h -0.381 -0.381 v -0.1905 -0.1905 h 0.381 0.381 v -0.762 -0.762 h 0.1905 0.1905 v -0.1905 -0.1905 h -0.1905 -0.1905 v -0.381 -0.381 h 0.1905 0.1905 v -0.1905 -0.1905 h 0.381 0.3809999 v 0.1905 0.1905 h 0.1905 0.1905 v -0.1905 -0.1905 h 0.1905 0.1905 v 0.1905 0.1905 h 0.1905 0.1905 v -0.1905 -0.1905 h 0.1905 0.1905 v 0.381 0.381 h 0.1905 0.1905 v -0.381 -0.381 h 0.1905 0.1905 v 0.381 0.381 h -0.1905 -0.1905 v 0.381 0.381 h -0.381 -0.381 v 0.1905 0.1905 h -0.1905 -0.1905 v -0.1905 -0.1905 h -0.762 -0.7619999 v 0.1905 0.1905 h 0.1905 0.1905 v 0.1905 0.1905 h 0.1904999 0.1905 v -0.1905 -0.1905 h 0.1905 0.1905 v 0.1905 0.1905 h 0.1905 0.1905 v 0.381 0.381 h -0.1905 -0.1905 v 0.1905 0.1905 h 0.381 0.381 v -0.1905 -0.1905 h 0.1905 0.1905 v 0.1905 0.1905 h 0.381 0.381 v 0.1905 0.1905 h 0.1905 0.1905 v -0.381 -0.381 h 0.5715 0.5715 v 0.381 0.381 h 0.381 0.3809998 v -0.1905 -0.1905 h -0.1905 -0.1904998 v -0.1905 -0.1905 h 0.3809998 0.381 v 0.381 0.381 h -0.1905 -0.1905 v 0.1904999 0.1905 h -0.3809998 -0.381 v 0.1905 0.1905 h -0.1905 -0.1905 v 0.1905 0.1905 h 0.1905 0.1905 v 0.1905 0.1905 h 0.1905 0.1905 v -0.381 -0.381 h 0.3809998 0.381 v -0.1905 -0.1905 h 0.1905 0.1905 v 0.5715 0.5715 h -0.1905 -0.1905 v 0.1905 0.1905 h -0.1905 -0.1905 v -0.1905 -0.1905 h -0.1905 -0.1904998 v 0.1905 0.1905 h -0.381 -0.381 v 0.1905 0.1905 h 0.1905 0.1905 v 0.381 0.381 h 0.1905 0.1905 v 0.1905 0.1905 h 0.1904998 0.1905 v -0.1905 -0.1905 h 0.381 0.381 v 0.381 0.381 h -0.1905 -0.1905 v 0.1905 0.1905 h -0.381 -0.3809998 v -0.1905 -0.1905 h -0.1905 -0.1905 v 0.381 0.381 h 0.381 0.3809998 v 0.1904998 0.1905 h 0.1905 0.1905 v -0.1905 -0.1904998 h 0.1905 0.1905 v 0.5714998 0.5715 h -0.381 -0.381 v -0.381 -0.381 h -0.1905 -0.1904998 v 0.381 0.381 h -0.381 -0.381 v -0.1905 -0.1905 h 0.1905 0.1905 v -0.381 -0.3809998 h -0.1905 -0.1905 v 0.1904998 0.1905 h -0.381 -0.381 v 0.1905 0.1905 h -0.1905 -0.1905 v -0.381 -0.3809998 h -0.1905 -0.1905 v 0.1904998 0.1905 h -0.1905 -0.1905 v 0.1905 0.1905 h 0.1905 0.1905 v 0.1905 0.1905 h -0.1905 -0.1905 v -0.1905 -0.1905 h -0.1905 -0.1905 v 0.1905 0.1905 h -0.381 -0.381 z m 0.762,-0.381 v -0.1905 h 0.1905 0.1905 v -0.1905 -0.1904998 h 0.1905 0.1905 v -0.381 -0.381 h -0.1905 -0.1905 v -0.381 -0.381 h 0.1905 0.1905 v -0.5715 -0.5715 h 0.381 0.381 v -0.762 -0.762 h -0.1905 -0.1905 v 0.381 0.381 h -0.1905 -0.1905 v 0.1905 0.1905 h -0.1905 -0.1905 v 0.1905 0.1905 h -0.1905 -0.1905 v 0.381 0.381 h 0.1905 0.1905 v 0.1905 0.1905 h -0.1905 -0.1905 v 0.381 0.381 h -0.1905 -0.1905 v -0.1905 -0.1905 h -0.381 -0.381 v 0.1905 0.1905 h 0.1905 0.1905 v 0.1905 0.1905 h -0.1905 -0.1905 v 0.381 0.3809998 h 0.1905 0.1905 v -0.3809998 -0.381 h 0.5715 0.5715 v 0.1905 0.1905 h -0.381 -0.381 v 0.3809998 0.381 h 0.1905 0.1905 z m 1.905,-0.7619998 v -0.1905 h -0.1905 -0.1905 v 0.1905 0.1905 h 0.1905 0.1905 z m 0.381,-1.143 v -0.5715 h -0.5715 -0.5715 v 0.5715 0.5715 h 0.5715 0.5715 z m -0.762,0 v -0.1905 h 0.1905 0.1905 v 0.1905 0.1905 h -0.1905 -0.1905 z m -3.4289999,-0.762 v -0.1905 h 0.381 0.3809999 v 0.1905 0.1905 h 0.1905 0.1905 v -0.381 -0.381 h -0.381 -0.3809999 v -0.1905 -0.1905 h -0.1905 -0.1905 v 0.1905 0.1905 h -0.1905 -0.1905 v -0.1905 -0.1905 h -0.1905 -0.1905 v 0.1905 0.1905 h 0.1905 0.1905 v 0.381 0.381 h 0.1905 0.1905 z m 4.1909999,-0.762 v -0.1905 h -0.1905 -0.1905 v 0.1905 0.1905 h 0.1905 0.1905 z m 1.5239998,-0.381 v -0.1905 h -0.1905 -0.1905 v 0.1905 0.1905 h 0.1905 0.1905 z m -7.6199997,-1.143 V 5.3763333 h -0.1905 -0.1905 v 0.1904999 0.1905 h 0.1905 0.1905 z m 6.4769999,0 V 5.3763333 h -0.1905 -0.1905 v -0.1905 -0.1905 h -0.1905 -0.1905 v 0.1905 0.1905 h 0.1905 0.1905 v 0.1904999 0.1905 h 0.1905 0.1905 z m -3.429,-0.3809999 v -0.1905 h -0.1905 -0.1905 v 0.1905 0.1905 h 0.1905 0.1905 z m 0,-0.9525 v -0.381 h -0.1905 -0.1905 v 0.1905 0.1905 h -0.1905 -0.1904999 v -0.1905 -0.1905 h -0.1905 -0.1905 v 0.1905 0.1905 h 0.1905 0.1905 v 0.1905 0.1905 h 0.3809999 0.381 z m 0.762,-1.524 v -0.381 h -0.1905 -0.1905 v -0.1905 -0.1905 h -0.1905 -0.1905 v 0.1905 0.1905 h 0.1905 0.1905 v 0.381 0.381 h 0.1905 0.1905 z m -1.143,-0.5715 v -0.1905 h -0.3809999 -0.381 v 0.1905 0.1905 h 0.381 0.3809999 z m 4.9529998,5.7149999 v -0.1905 h 0.1905 0.1905 v 0.1905 0.1905 h -0.1905 -0.1905 z M 1.5663333,4.8048333 v -0.1905 h 0.381 0.381 v 0.1905 0.1905 h -0.381 -0.381 z m 0,-1.905 v -1.3335 h 1.3335 1.3335 v 1.3335 1.3335 h -1.3335 -1.3335 z m 2.286,0 v -0.9525 h -0.9525 -0.9525 v 0.9525 0.9525 h 0.9525 0.9525 z m -1.524,0 v -0.5715 h 0.5715 0.5715 v 0.5715 0.5715 h -0.5715 -0.5715 z m 4.5719999,1.143 v -0.1905 h 0.1905 0.1905 v -0.1905 -0.1905 h 0.381 0.381 v 0.381 0.381 h -0.1905 -0.1905 v -0.1905 -0.1905 h -0.1905 -0.1905 v 0.1905 0.1905 h -0.1905 -0.1905 z m 1.524,-1.143 v -1.3335 h 1.3335 1.3334998 v 1.3335 1.3335 h -1.3334998 -1.3335 z m 2.2859998,0 v -0.9525 h -0.9524998 -0.9525 v 0.9525 0.9525 h 0.9525 0.9524998 z m -1.5239998,0 v -0.5715 h 0.5715 0.5714998 v 0.5715 0.5715 h -0.5714998 -0.5715 z"
       id="path31" /></g></svg>
